<svg width="19" height="20" viewBox="0 0 19 20" fill="none" xmlns="http://www.w3.org/2000/svg">
<path d="M12.3546 12.6016L12.8 12.19C13.6611 11.3943 15.1137 11.4558 15.923 12.3222L16.2049 12.6239L16.6346 13.0839C17.3886 13.891 17.2831 15.0821 16.399 15.7442L16.207 15.888" stroke="#7ABA05" stroke-width="2" stroke-linecap="round"/>
<path d="M4.05497 2.69632L4.67592 2.24676C5.57062 1.59901 6.89608 1.73843 7.63641 2.55818L7.98424 2.94332L8.49986 3.51424C9.17132 4.25772 9.13881 5.32118 8.4238 6.0023L7.55288 6.83193" stroke="#7ABA05" stroke-width="2" stroke-linecap="round" stroke-linejoin="round"/>
<path d="M16.0782 15.9557V15.9557C13.5418 17.6778 9.8793 17.1773 7.89788 14.8378L5.74273 12.2931L3.58757 9.74849C1.60615 7.40898 2.0561 4.11637 4.59257 2.39425V2.39425" stroke="#7ABA05" stroke-width="2" stroke-linecap="round"/>
<path d="M7.57751 6.83188L7.59699 7.07123C7.69816 8.31486 8.08835 9.55453 8.92255 10.5681V10.5681V10.5681C9.6632 11.4681 10.7242 12.1015 11.8718 12.5132L12.3241 12.6754" stroke="#7ABA05" stroke-width="2" stroke-linecap="round"/>
</svg>
