<svg width="13" height="18" viewBox="0 0 13 18" fill="none" xmlns="http://www.w3.org/2000/svg">
<path d="M12 6.1017C12 6.74768 11.7744 7.62289 11.3361 8.67042C10.9052 9.70018 10.3027 10.8178 9.62763 11.9242C8.59884 13.6101 7.42883 15.2252 6.51051 16.3976C5.4122 14.9825 4.18006 13.2972 3.15439 11.6061C2.51736 10.5558 1.97151 9.52203 1.58727 8.56403C1.19896 7.59586 1 6.76423 1 6.1017C1 3.34274 3.40192 1 6.5 1C9.59808 1 12 3.34274 12 6.1017Z" stroke="#7ABA05" stroke-width="2"/>
<path d="M9.15194 6.20152C9.15194 7.42872 8.07282 8.52972 6.60649 8.52972C5.14016 8.52972 4.06104 7.42872 4.06104 6.20152C4.06104 4.97432 5.14016 3.87332 6.60649 3.87332C8.07282 3.87332 9.15194 4.97432 9.15194 6.20152Z" fill="white" stroke="#7ABA05" stroke-width="2"/>
</svg>
